Monsters (2010)(2011-Bios) 1080P MKV X264 AC3+DTS NLSubs-DMT

Vanaf 28 april 2011 in de bioscoop

Verenigd Koninkrijk
Drama / Science-Fiction/Thriller
94 minuten

geregisseerd door Gareth Edwards
met Whitney Able en Scoot McNairy

Zes Jaar geleden ontdekte de NASA mogelijk buitenaards leven in ons zonnestelsel. 
Een sonde werd de ruimte ingestuurd om monsters te verzamelen, 
maar bij terugkomst op aarde stort deze neer in Centraal Amerika. 
Wanneer er nieuw leven blijkt te ontstaan wordt half Mexico in quarantaine genomen en bestempeld als geïnfecteerde zone. 
Vandaag de dag zijn de Mexicaanse en Amerikaanse militairen nog steeds bezig om de wezens te beheersen. 
Een Amerikaanse journalist stemt er mee in om een bange toerist te begeleiden door de geïnfecteerde zone in Mexico, 
naar de veilige grens van Amerika.
------------------------------------------------------------------------------------------------------------------------

PLOT

Six years after Earth has suffered an alien invasion a cynical journalist agrees to escort a 
shaken American tourist through an infected zone in Mexico to the safety of the US border. 
------------------------------------------------------------------------------------------------------------------------
 
http://www.youtube.com/watch?v=QmR-l3y_coo

MM:    http://www.moviemeter.nl/film/68156

IMDB:    http://www.imdb.com/title/tt1470827/
------------------------------------------------------------------------------------------------------------------------
Info

RELEASE.NAME....monsters.dts.ac3.nlsubs.1080p.maupzilla

Source......: 1080P BluRay Retail
FRAME RATE..: 23.976Fps 
VIDEO CODEC.: X264
AUDIO 1.....: DTS
Audio 2.....: AC3
RESOLUTION..: 1920x1080
RUNTIME.....: 94 MINS 
GENERE......: Drama | Sci-Fi | Thriller   
LANGUAGE....: English
SUBTITLES...: Dutch
Thanks To ENCODER........Maupzilla (Nice Job)
--------------------------------------------------------------------------------------------------------------------------

General
Complete name                    : monsters.dts.ac3.nlsubs.1080p.maupzilla.mkv
Format                           : Matroska
File size                        : 8.37 GiB
Duration                         : 1h 33mn
Overall bit rate                 : 12.8 Mbps
Movie name                       : monsters
Encoded date                     : UTC 2010-11-12 12:20:42
Writing application              : mkvmerge v3.4.0 ('Rapunzel') built on May 15 2010 09:38:20
Writing library                  : libebml v0.8.0 + libmatroska v0.9.0

Video
ID                               : 1
Format                           : AVC
Format/Info                      : Advanced Video Codec
Format profile                   : High@L4.0
Format settings, CABAC           : Yes
Format settings, ReFrames        : 3 frames
Muxing mode                      : Container profile=Unknown@4.0
Codec ID                         : V_MPEG4/ISO/AVC
Duration                         : 1h 33mn
Bit rate mode                    : Variable
Bit rate                         : 10.6 Mbps
Maximum bit rate                 : 25.0 Mbps
Width                            : 1 920 pixels
Height                           : 1 080 pixels
Display aspect ratio             : 16:9
Frame rate                       : 23.976 fps
Color space                      : YUV
Chroma subsampling               : 4:2:0
Bit depth                        : 8 bits
Scan type                        : Progressive
Bits/(Pixel*Frame)               : 0.214
Stream size                      : 6.80 GiB (81%)
Title                            : Film Spoor
Writing library                  : x264 core 96 r1613 81e75e9
Encoding settings                : cabac=1 / ref=3 / deblock=1:0:0 / analyse=0x3:0x133 / 
me=umh / subme=7 / psy=1 / psy_rd=1.00:0.00 / mixed_ref=1 / me_range=16 / chroma_me=1 / 
trellis=1 / 8x8dct=1 / cqm=0 / deadzone=21,11 / fast_pskip=1 / chroma_qp_offset=-2 / 
threads=12 / sliced_threads=0 / nr=0 / decimate=1 / interlaced=0 / constrained_intra=0 / 
bframes=3 / b_pyramid=0 / b_adapt=1 / b_bias=0 / direct=1 / weightb=1 / weightp=2 / 
keyint=240 / keyint_min=24 / scenecut=40 / intra_refresh=0 / rc_lookahead=40 / 
rc=2pass / mbtree=1 / bitrate=10637 / ratetol=1.0 / qcomp=0.60 / qpmin=10 / 
qpmax=51 / qpstep=4 / cplxblur=20.0 / qblur=0.5 / vbv_maxrate=25000 / 
vbv_bufsize=25000 / ip_ratio=1.40 / aq=1:1.00 / nal_hrd=vbr

Audio #1
ID                               : 2
Format                           : DTS
Format/Info                      : Digital Theater Systems
Codec ID                         : A_DTS
Duration                         : 1h 33mn
Bit rate mode                    : Constant
Bit rate                         : 1 510 Kbps
Channel(s)                       : 6 channels
Channel positions                : Front: L C R, Side: L R, LFE
Sampling rate                    : 48.0 KHz
Bit depth                        : 24 bits
Stream size                      : 1 012 MiB (12%)
Title                            : DTS Spoor
Language                         : English

Audio #2
ID                               : 3
Format                           : AC-3
Format/Info                      : Audio Coding 3
Mode extension                   : CM (complete main)
Codec ID                         : A_AC3
Duration                         : 1h 33mn
Bit rate mode                    : Constant
Bit rate                         : 640 Kbps
Channel(s)                       : 6 channels
Channel positions                : Front: L C R, Side: L R, LFE
Sampling rate                    : 48.0 KHz
Bit depth                        : 16 bits
Stream size                      : 429 MiB (5%)
Title                            : AC3 Spoor
Language                         : English

Text
ID                               : 4
Format                           : UTF-8
Codec ID                         : S_TEXT/UTF8
Codec ID/Info                    : UTF-8 Plain Text
Title                            : NL Subs
Language                         : Dutch





